<svg xmlns="http://www.w3.org/2000/svg" version="1.1" xmlns:xlink="http://www.w3.org/1999/xlink" xmlns:svgjs="http://svgjs.dev/svgjs" width="1500" height="1500" viewBox="0 0 1500 1500"><rect width="1500" height="1500" fill="#ffffff"></rect><g transform="matrix(0.6666666666666666,0,0,0.6666666666666666,249.48109436861603,333.3376518218623)"><svg viewBox="0 0 296 247" data-background-color="#ffffff" preserveAspectRatio="xMidYMid meet" height="1251" width="1500" xmlns="http://www.w3.org/2000/svg" xmlns:xlink="http://www.w3.org/1999/xlink"><g id="tight-bounds" transform="matrix(1,0,0,1,0.1535960668896621,-0.09999999999999432)"><svg viewBox="0 0 295.6928078662207 247.2" height="247.2" width="295.6928078662207"><g><svg viewBox="0 0 295.6928078662207 247.2" height="247.2" width="295.6928078662207"><g transform="matrix(1,0,0,1,98.37374432107022,0)"><svg viewBox="0 0 197.31906354515047 247.2" height="247.2" width="197.31906354515047"><g id="textblocktransform"><svg viewBox="0 0 197.31906354515047 247.2" height="247.2" width="197.31906354515047" id="textblock"><g><svg viewBox="0 0 197.31906354515047 247.2" height="247.2" width="197.31906354515047"><g transform="matrix(1,0,0,1,0,0)"><svg width="197.31906354515047" viewBox="2.38 -33.81 89.5 109.19" height="247.2" data-palette-color="#2a2325"><svg></svg><svg></svg><svg></svg><g class="wordmark-text-0" data-fill-palette-color="primary" id="text-0"><path d="M5.69-28.63c-0.753 0-1.38-0.26-1.88-0.78-0.5-0.52-0.75-1.133-0.75-1.84v0c0-0.667 0.25-1.26 0.75-1.78 0.5-0.52 1.127-0.78 1.88-0.78v0c0.707 0 1.31 0.26 1.81 0.78 0.5 0.52 0.75 1.113 0.75 1.78v0c0 0.707-0.24 1.32-0.72 1.84-0.48 0.52-1.093 0.78-1.84 0.78zM7.69-24v24h-4.06v-24zM25.19-24.31c0.913 0 1.653 0.05 2.22 0.15 0.56 0.107 1.11 0.283 1.65 0.53v0l-1.43 3.63c-1.087-0.5-2.277-0.75-3.57-0.75v0c-1.747 0-3.473 0.583-5.18 1.75v0 19h-4.07v-24h2.94l0.88 2.06c2.08-1.58 4.267-2.37 6.56-2.37zM35.31-28.63c-0.747 0-1.37-0.26-1.87-0.78-0.5-0.52-0.75-1.133-0.75-1.84v0c0-0.667 0.25-1.26 0.75-1.78 0.5-0.52 1.123-0.78 1.87-0.78v0c0.713 0 1.32 0.26 1.82 0.78 0.5 0.52 0.75 1.113 0.75 1.78v0c0 0.707-0.24 1.32-0.72 1.84-0.48 0.52-1.097 0.78-1.85 0.78zM37.31-24v24h-4.06v-24zM52-2.88c1.46 0 2.7-0.28 3.72-0.84 1.02-0.56 1.53-1.383 1.53-2.47v0c0-0.873-0.373-1.56-1.12-2.06-0.753-0.5-2.337-1.25-4.75-2.25v0l-2.38-0.94c-1.04-0.5-1.893-0.947-2.56-1.34-0.667-0.4-1.27-1.003-1.81-1.81-0.547-0.813-0.82-1.847-0.82-3.1v0c0-2.247 0.927-3.913 2.78-5 1.86-1.08 4.143-1.62 6.85-1.62v0c2.293 0 4.583 0.52 6.87 1.56v0l-1 3c-1.873-0.793-3.683-1.19-5.43-1.19v0c-1.793 0-3.243 0.26-4.35 0.78-1.1 0.52-1.65 1.26-1.65 2.22v0c0 0.96 0.383 1.71 1.15 2.25 0.773 0.54 2.097 1.167 3.97 1.88v0l2.06 0.81c2.293 0.96 3.9 1.96 4.82 3 0.913 1.04 1.37 2.413 1.37 4.12v0c0 1.753-0.813 3.267-2.44 4.54-1.62 1.267-3.787 1.9-6.5 1.9v0c-3.08 0-6.12-0.603-9.12-1.81v0l1.12-3.06c2.713 0.953 5.277 1.43 7.69 1.43z" fill="#2a2325" fill-rule="nonzero" stroke="none" stroke-width="1" stroke-linecap="butt" stroke-linejoin="miter" stroke-miterlimit="10" stroke-dasharray="" stroke-dashoffset="0" font-family="none" font-weight="none" font-size="none" text-anchor="none" style="mix-blend-mode: normal" data-fill-palette-color="primary" opacity="1"></path><path transform="translate(0,37.38)" d="M13.5 0.5c-3.58 0-6.33-1.113-8.25-3.34-1.913-2.233-2.87-5.203-2.87-8.91v0c0-4.087 1.143-7.273 3.43-9.56v0c2.213-2.127 4.963-3.19 8.25-3.19v0c2.213 0 4.09 0.373 5.63 1.12v0-9.87h4.25v33.25h-3l-0.69-1.69c-2.247 1.46-4.497 2.19-6.75 2.19zM14.31-2.94c1.127 0 2.077-0.113 2.85-0.34 0.767-0.233 1.61-0.6 2.53-1.1v0-15.87c-1.54-0.627-3.31-0.94-5.31-0.94v0c-2.587 0-4.537 0.833-5.85 2.5-1.313 1.667-1.97 3.897-1.97 6.69v0c0 2.747 0.657 4.943 1.97 6.59 1.313 1.647 3.24 2.47 5.78 2.47zM38.69-20.81c-0.873 0-1.927 0.093-3.16 0.28-1.227 0.187-2.32 0.427-3.28 0.72v0l-0.81-3c2.793-0.96 5.397-1.44 7.81-1.44v0c2.707 0 4.77 0.417 6.19 1.25v0c1.247 0.913 2.11 1.893 2.59 2.94 0.48 1.04 0.72 2.56 0.72 4.56v0 15.5h-3.06l-0.88-2.25c-2.373 1.92-4.81 2.88-7.31 2.88v0c-2.167 0-3.99-0.627-5.47-1.88-1.48-1.253-2.22-2.837-2.22-4.75v0c0-1.873 0.573-3.427 1.72-4.66 1.147-1.227 2.553-2.05 4.22-2.47v0c2.127-0.54 5.107-0.85 8.94-0.93v0-0.19c0-1.707-0.167-2.957-0.5-3.75v0c-0.667-1.873-2.5-2.81-5.5-2.81zM38.06-2.63c1.38 0 2.59-0.237 3.63-0.71 1.04-0.48 2.04-1.16 3-2.04v0-5.75c-2.873 0.047-5 0.213-6.38 0.5v0c-1.54 0.333-2.683 0.823-3.43 1.47-0.753 0.647-1.13 1.553-1.13 2.72v0c0 1.207 0.427 2.143 1.28 2.81 0.853 0.667 1.863 1 3.03 1zM63.75 0.5c-2.413 0-4.133-0.657-5.16-1.97-1.02-1.313-1.53-3.303-1.53-5.97v0-13.19h-4.06v-3.37h4.06v-5.88l4.07-0.31v6.19h7.87v3.37h-7.87v12.94c0 1.667 0.26 2.877 0.78 3.63 0.52 0.747 1.53 1.12 3.03 1.12v0c1.413 0 2.683-0.123 3.81-0.37v0l0.69 2.75c-1.873 0.707-3.77 1.06-5.69 1.06zM81.81-20.81c-0.873 0-1.923 0.093-3.15 0.28-1.233 0.187-2.327 0.427-3.28 0.72v0l-0.82-3c2.793-0.96 5.4-1.44 7.82-1.44v0c2.707 0 4.767 0.417 6.18 1.25v0c1.253 0.913 2.12 1.893 2.6 2.94 0.48 1.04 0.72 2.56 0.72 4.56v0 15.5h-3.07l-0.87-2.25c-2.373 1.92-4.81 2.88-7.31 2.88v0c-2.167 0-3.99-0.627-5.47-1.88-1.48-1.253-2.22-2.837-2.22-4.75v0c0-1.873 0.573-3.427 1.72-4.66 1.147-1.227 2.553-2.05 4.22-2.47v0c2.12-0.54 5.097-0.85 8.93-0.93v0-0.19c0-1.707-0.167-2.957-0.5-3.75v0c-0.667-1.873-2.5-2.81-5.5-2.81zM81.19-2.63c1.373 0 2.58-0.237 3.62-0.71 1.047-0.48 2.047-1.16 3-2.04v0-5.75c-2.873 0.047-4.997 0.213-6.37 0.5v0c-1.54 0.333-2.687 0.823-3.44 1.47-0.747 0.647-1.12 1.553-1.12 2.72v0c0 1.207 0.427 2.143 1.28 2.81 0.853 0.667 1.863 1 3.03 1z" fill="#2a2325" fill-rule="nonzero" stroke="none" stroke-width="1" stroke-linecap="butt" stroke-linejoin="miter" stroke-miterlimit="10" stroke-dasharray="" stroke-dashoffset="0" font-family="none" font-weight="none" font-size="none" text-anchor="none" style="mix-blend-mode: normal" data-fill-palette-color="primary" opacity="1"></path><path transform="translate(0,74.75)" d="M10.63-3.19c0.62 0 1.327-0.123 2.12-0.37v0l0.75 2.93c-0.127 0.047-0.627 0.257-1.5 0.63-0.873 0.373-1.997 0.56-3.37 0.56v0c-1.547 0-2.777-0.53-3.69-1.59-0.92-1.067-1.4-2.453-1.44-4.16v0-28.12h3.94v26.68c0 1.127 0.187 1.983 0.56 2.57 0.373 0.58 1.25 0.87 2.63 0.87zM25-20.81c-0.873 0-1.927 0.093-3.16 0.28-1.227 0.187-2.32 0.427-3.28 0.72v0l-0.81-3c2.793-0.96 5.397-1.44 7.81-1.44v0c2.713 0 4.777 0.417 6.19 1.25v0c1.253 0.913 2.117 1.893 2.59 2.94 0.48 1.04 0.72 2.56 0.72 4.56v0 15.5h-3.06l-0.87-2.25c-2.38 1.92-4.82 2.88-7.32 2.88v0c-2.167 0-3.99-0.627-5.47-1.88-1.473-1.253-2.21-2.837-2.21-4.75v0c0-1.873 0.57-3.427 1.71-4.66 1.147-1.227 2.553-2.05 4.22-2.47v0c2.127-0.54 5.107-0.85 8.94-0.93v0-0.19c0-1.707-0.167-2.957-0.5-3.75v0c-0.667-1.873-2.5-2.81-5.5-2.81zM24.38-2.63c1.373 0 2.58-0.237 3.62-0.71 1.04-0.48 2.04-1.16 3-2.04v0-5.75c-2.873 0.047-4.997 0.213-6.37 0.5v0c-1.547 0.333-2.693 0.823-3.44 1.47-0.753 0.647-1.13 1.553-1.13 2.72v0c0 1.207 0.427 2.143 1.28 2.81 0.86 0.667 1.873 1 3.04 1zM44.81 0h-2.87v-33.25h4.06v9.87c1.627-0.747 3.563-1.12 5.81-1.12v0c3.38 0 6.13 1 8.25 3v0c2.213 2.207 3.32 5.457 3.32 9.75v0c0 3.707-0.95 6.677-2.85 8.91-1.893 2.227-4.61 3.34-8.15 3.34v0c-2.333 0-4.607-0.73-6.82-2.19v0zM51.38-2.94c2.667 0 4.623-0.73 5.87-2.19 1.253-1.453 1.88-3.743 1.88-6.87v0c0-2.793-0.657-5.023-1.97-6.69-1.313-1.667-3.263-2.5-5.85-2.5v0c-1.953 0-3.723 0.313-5.31 0.94v0 15.87c0.96 0.5 1.823 0.867 2.59 1.1 0.773 0.227 1.703 0.34 2.79 0.34zM76.81-2.88c1.46 0 2.7-0.28 3.72-0.84 1.02-0.56 1.53-1.383 1.53-2.47v0c0-0.873-0.373-1.56-1.12-2.06-0.753-0.5-2.337-1.25-4.75-2.25v0l-2.38-0.94c-1.04-0.5-1.893-0.947-2.56-1.34-0.667-0.4-1.27-1.003-1.81-1.81-0.54-0.813-0.81-1.847-0.81-3.1v0c0-2.247 0.927-3.913 2.78-5 1.853-1.08 4.133-1.62 6.84-1.62v0c2.293 0 4.587 0.52 6.88 1.56v0l-1 3c-1.88-0.793-3.693-1.19-5.44-1.19v0c-1.793 0-3.243 0.26-4.35 0.78-1.1 0.52-1.65 1.26-1.65 2.22v0c0 0.96 0.383 1.71 1.15 2.25 0.773 0.54 2.097 1.167 3.97 1.88v0l2.07 0.81c2.287 0.96 3.89 1.96 4.81 3 0.913 1.04 1.37 2.413 1.37 4.12v0c0 1.753-0.81 3.267-2.43 4.54-1.627 1.267-3.793 1.9-6.5 1.9v0c-3.087 0-6.13-0.603-9.13-1.81v0l1.13-3.06c2.707 0.953 5.267 1.43 7.68 1.43z" fill="#2a2325" fill-rule="nonzero" stroke="none" stroke-width="1" stroke-linecap="butt" stroke-linejoin="miter" stroke-miterlimit="10" stroke-dasharray="" stroke-dashoffset="0" font-family="none" font-weight="none" font-size="none" text-anchor="none" style="mix-blend-mode: normal" data-fill-palette-color="primary" opacity="1"></path></g></svg></g></svg></g></svg></g></svg></g><g transform="matrix(1,0,0,1,0,57.252582249149896)"><svg viewBox="0 0 80.48249963879597 132.6948355017002" height="132.6948355017002" width="80.48249963879597"><g><svg xmlns="http://www.w3.org/2000/svg" xmlns:xlink="http://www.w3.org/1999/xlink" version="1.1" x="0" y="0" viewBox="33.941554115680816 23.625 32.086445884319176 52.902254248593735" enable-background="new 0 0 100 100" xml:space="preserve" height="132.6948355017002" width="80.48249963879597" class="icon-icon-0" data-fill-palette-color="accent" id="icon-0"><path fill-rule="evenodd" clip-rule="evenodd" d="M52.9 35.3C53.2 35.4 53.3 35.4 53.5 35.2 53.6 35.1 53.7 35.1 53.8 35S54 34.9 54.1 34.8 54.3 34.7 54.4 34.6 54.6 34.5 54.7 34.4 55.2 34 55.4 33.9C55.5 33.8 55.7 33.6 55.8 33.6S56 33.4 56.1 33.4 56.3 33.2 56.4 33.2 56.6 33 56.7 33L56.9 32.9 57 32.7H57.2L57.3 32.5H57.5L57.6 32.3C57.8 32.2 57.9 32.2 58.1 32.1 58.2 32.1 58.1 32 58.2 32L58.4 31.9 58.5 31.7H58.7L58.8 31.5H59L59.1 31.3H59.3L59.4 31.1H59.6L59.7 30.9C59.9 30.8 60.1 30.8 60.4 30.6L60.5 30.5C60.6 30.4 60.8 30.5 60.9 30.4L61 30.2H61.2C61.3 30.1 61.3 29.9 61.4 29.9 61.9 29.6 62.4 29.3 62.8 29.2 63.8 29.1 64.4 29.7 65.2 30.3 65.3 30.5 65.1 30.7 65.2 30.9S65.3 31.6 65.2 32V32.2C65.1 32.3 65 32.5 64.9 32.7 64.9 32.8 64.9 32.9 64.8 33 64.8 33.1 64.6 33.1 64.6 33.1 64.4 33.4 64.2 33.6 64 33.9S63.7 34.5 63.5 34.7C63.2 35 62.7 35.1 62.3 35.4 62.2 35.5 62.1 35.7 61.9 35.8 61.8 35.9 61.4 36.1 61.2 36.2 61.1 36.2 61.2 36.3 61.1 36.3S60.9 36.5 60.8 36.5 60.5 36.7 60.3 36.8C60.2 36.9 60.2 37 60.1 37H59.9L59.8 37.2C59.7 37.3 59.6 37.2 59.5 37.3S59.4 37.5 59.3 37.6 59.1 37.6 59 37.7C58.8 37.8 58.7 38.1 58.5 38.2 58.4 38.3 58.4 38.3 58.3 38.3S58.1 38.5 58 38.6H57.8L57.7 38.8H57.5L57.4 39H57.2L57.1 39.2C57 39.3 56.9 39.2 56.8 39.3 56.6 39.4 56.5 39.7 56.3 39.8L55.4 40.7C55.3 40.9 55 40.9 55 41.2 55.1 41.6 55.2 41.7 55.5 41.9 55.6 41.9 55.7 42 55.7 42L56.1 42.4C56.2 42.5 56.3 42.4 56.4 42.5 56.5 42.5 56.5 42.7 56.5 42.7 56.6 42.8 56.7 42.7 56.8 42.8 56.9 42.8 56.9 43 57 43 57.1 43.1 57.3 43.2 57.4 43.3S57.6 43.3 57.7 43.4 57.9 43.8 58.1 44C58.5 44.1 58.9 44.2 59.2 44.5L59.6 44.9C59.7 45 59.7 45.1 59.8 45.1H60C60.1 45.2 60.3 45.3 60.5 45.5 60.6 45.6 60.6 45.7 60.7 45.7H60.9C61 45.8 61.2 46 61.4 46.1 61.5 46.2 61.5 46.3 61.6 46.3H61.8C61.9 46.4 62.1 46.6 62.3 46.7 62.4 46.7 62.5 46.7 62.6 46.8S62.9 47.2 63.1 47.4C63.2 47.4 63.3 47.6 63.3 47.6H63.5V47.7C63.6 47.8 63.7 47.7 63.8 47.8 63.9 47.8 63.9 48 64 48 64.1 48.1 64.2 48 64.3 48.1 64.5 48.2 64.6 48.5 64.8 48.7 64.9 48.8 65.1 48.9 65.2 49S65.2 49.3 65.3 49.4L65.5 49.5V49.7L65.7 49.8C65.8 50 65.7 50.1 65.9 50.2 66 50.6 65.8 50.9 65.8 51.2 65.9 51.2 65.9 51.3 65.9 51.4S66.1 51.7 66 52C65.9 52.4 65.2 53 64.8 53.2 64.7 53.5 64.5 53.7 64.3 53.9 64.1 54 63.8 54 63.6 54.1 63.7 54.1 63 54.4 62.9 54.2 62.8 54.1 62.8 54.1 62.6 54.1H62.4C62.3 54 61.5 54 61.2 53.9 61.2 53.9 61.2 53.8 61.1 53.8S60.9 53.6 60.7 53.6L60.4 53.5 60.1 53.2C60 53.2 60 53.1 59.9 53.1L59.6 53C60 53.3 60 53.1 59.8 53L59.6 52.9 59.3 52.6H59.1L59 52.4H58.8C58.7 52.3 58.7 52.1 58.5 52.1L58.3 52 58 51.7C57.9 51.7 57.9 51.6 57.8 51.6 57.7 51.5 57.5 51.3 57.4 51.3S57.3 51.1 57.2 51.1H57L56.7 50.8C56.6 50.8 56.6 50.7 56.5 50.7L56.4 50.6C56 50.4 55.6 50.5 55.3 50.3 55.2 50.3 55.3 50.2 55.2 50.2 55 50.2 55 49.9 54.8 49.8H54.6C54.5 49.7 54.5 49.6 54.3 49.5 54.2 49.4 54.1 49.4 54 49.3S53.8 49.2 53.7 49.1 53.2 48.7 52.9 48.7C52.7 48.8 52.7 48.9 52.6 49.1S52.5 49.5 52.5 49.7C52.4 50.3 52.5 50.9 52.4 51.7 52.4 52 52.3 52.4 52.3 52.9 52.3 53.2 52.4 53.2 52.3 53.5 52.3 53.6 52.5 54.4 52.3 54.5 52 54.8 52 55.5 52 55.9S52 56.7 51.9 57.1C51.9 57.5 51.7 57.9 51.7 58.2 51.6 59.2 51.7 60.1 51.7 61.1V61.3C51.6 61.9 51.7 63.1 51.7 64 51.7 64.3 51.6 64.5 51.6 64.7 51.6 65 51.7 65.3 51.7 65.6 51.8 66.5 51.8 67.6 51.8 68.6 51.8 69.4 51.8 70.3 51.7 71 51.6 71.3 51.7 71.8 51.6 72.3 51.6 72.6 51.5 72.9 51.4 73.1 51.2 73.8 51.1 74.8 51.1 75.8 51 75.9 50.9 75.9 50.8 76L50.7 76.2C50.6 76.3 50.4 76.2 50.3 76.3 50.1 76.4 49.8 76.6 49.3 76.5 49.1 76.5 48.6 76.1 48.2 76H48L47.7 75.9C47.6 75.7 47.4 75.7 47.2 75.5L46.8 75.1C46.4 74.8 46.2 74.6 46.1 74.3 45.9 73.9 46 73.5 46 73 45.9 71.9 45.9 70.9 45.9 69.6 45.9 69.6 46 69.6 46 69.5 46 69.5 45.9 69.5 45.9 69.4V69.1C45.9 67.8 45.9 66.5 46 65.1 46 64.9 46.1 64.7 46.1 64.5 46.2 62.6 45.9 60.3 46.1 58.3 46.2 57.4 46.2 56.6 46.2 55.7 46.2 53.8 46 51.9 46.2 50.3 46.3 49.4 46.7 48.6 46.2 47.8 45.8 47.6 45.5 48.1 45.2 48.1 45.1 48.1 45 48.3 44.9 48.3S44.8 48.4 44.7 48.4 44.6 48.6 44.5 48.6H44.3V48.7C44.2 48.7 44.1 48.7 44 48.8L43.9 49C43.8 49.1 43.7 49 43.6 49.1L43.5 49.3C43.4 49.4 43.3 49.3 43.2 49.4S43 49.8 42.8 49.9C42.7 50 42.6 49.9 42.5 50L42.4 50.2C42.3 50.3 42.2 50.2 42.1 50.3S41.8 50.7 41.6 50.8C41.5 50.9 41.3 51 41.2 51.1S41.1 51.3 41 51.3H40.8C40.3 51.8 40.3 52 40 52 39.8 52 39.8 52.3 39.6 52.3 39.5 52.3 39.5 52.5 39.4 52.5H39.2V52.6C38.9 52.8 38.6 52.7 38.3 52.8 38.3 52.8 38.3 52.9 38.2 52.9 38 52.9 37.4 53.3 37 53.2 37 53.2 37 53.1 36.9 53.1 36.7 53.1 36.6 53.1 36.4 53 36.3 53 36.1 53 36 52.9L35.6 52.5C35.5 52.4 35.3 52.2 35.2 52 35 52 35 52 35 51.8 35 51.7 34.9 51.7 34.9 51.7 34.8 51.3 34.8 50.2 35.1 49.7 35.1 49.6 35.2 49.7 35.2 49.6S35.5 49.2 35.6 49.1H35.8C35.9 49 35.9 48.9 36.1 48.8S36.7 48.5 36.9 48.3C37.2 48 37.3 47.7 37.7 47.5 37.8 47.5 37.8 47.4 37.9 47.4 38 47.3 38.1 47.3 38.2 47.2S38.4 47.1 38.5 47 38.8 46.9 38.8 46.9C38.9 46.8 38.9 46.6 39.1 46.6 39.2 46.6 39.3 46.4 39.4 46.4S39.6 46.2 39.7 46.2 40 45.9 40.2 45.8C40.4 45.6 40.7 45.5 41 45.3S41.9 44.7 42.4 44.3C42.5 44.3 42.4 44.2 42.5 44.2S42.7 44 42.9 44C43 44 43.1 43.8 43.2 43.8S43.5 43.7 43.6 43.6C44.2 43.2 45.2 42.9 44.7 42 44.7 41.9 44.6 42 44.6 41.9 44.6 41.7 44 41.3 43.8 41.1L43.2 40.5C42.9 40.3 42.6 40.3 42.4 40.1 42.3 39.8 41.9 39.5 41.7 39.2 41.6 39.1 41.5 38.9 41.4 38.7 41.3 38.6 41 38.3 40.8 38.2 40.7 38.1 40.3 37.8 40.1 37.7 40 37.7 39.9 37.7 39.8 37.6L39.7 37.4C39.6 37.3 39.5 37.3 39.3 37.2 39.2 37.1 39.1 37.1 39 37L38.8 36.8C38.6 36.7 38.4 36.5 38.2 36.4L38.1 36.2C38 36.1 37.9 36.1 37.7 36L37.6 35.8C37.5 35.7 37.4 35.7 37.2 35.6L37.1 35.4C37 35.3 36.8 35.3 36.7 35.2L36.3 34.8C36.2 34.7 36.3 34.6 36.2 34.5 36.2 34.5 36 34.5 36 34.4 35.9 34.2 35.8 34.1 35.7 33.9 35.6 33.8 35.4 33.7 35.3 33.6S35.3 33.4 35.2 33.3 34.7 33 34.6 32.8C34.5 32.7 34.6 32.6 34.5 32.5L34.3 32.4C34.2 32.3 34.2 32.2 34.2 32.1L34.1 31.7C33.8 31.5 34 29.6 34.1 29.2 34.1 29.1 34.2 29.2 34.2 29.1S34.4 28.9 34.5 28.8 34.7 28.6 34.9 28.5C35 28.5 35 28.4 35.1 28.4S35.5 28.1 35.7 28.1C35.8 28.1 35.9 27.9 36 27.9S36.3 27.7 36.6 27.7C37.6 27.6 38.3 28.3 39.4 28.1L39.7 28.4C40.2 28.8 40.7 29.4 41.3 29.9 41.6 30.1 41.8 30.4 42.1 30.6 42.2 30.7 42.3 30.7 42.4 30.8 42.4 30.8 42.8 31.2 42.9 31.2L43.1 31.3 43.2 31.5H43.4C43.5 31.6 43.5 31.7 43.6 31.8H43.8C43.9 31.9 43.9 32 44.1 32.1S44.6 32.4 44.8 32.6C44.9 32.7 45 32.7 45.1 32.8L45.2 33H45.4C45.5 33.1 45.5 33.2 45.6 33.3H45.8C45.9 33.4 46.2 33.8 46.5 33.8 46.9 33.3 46.8 32.8 46.9 32.1 47 30.4 46.8 28 47.1 26.4 47.1 26.2 47.2 25.9 47.3 25.7 47.3 25.6 47.3 25.4 47.4 25.3 47.4 25.2 47.6 25.2 47.6 25.1 47.8 24.8 48.1 24.5 48.4 24.3 48.5 24.2 48.6 24 48.7 24 48.8 23.9 49.1 23.9 49.3 23.9 49.4 23.9 49.5 23.7 49.5 23.7H49.8C50.1 23.6 50.3 23.6 50.9 23.7 51.2 23.7 51.4 23.7 51.6 23.8 51.6 23.8 51.6 23.9 51.7 23.9S52.6 24.6 52.6 24.8C52.6 24.8 52.7 24.9 52.7 25 52.8 25.2 52.8 25.3 52.9 25.5 52.9 25.6 53 25.7 53 25.8 53.1 26.1 53.3 27.5 53.2 28.2 53.1 28.7 53.1 29.9 53.1 30.8 52.8 32.1 52.8 33.8 52.9 35.3" fill="#844fa8" data-fill-palette-color="accent"></path></svg></g></svg></g></svg></g><defs></defs></svg><rect width="295.6928078662207" height="247.2" fill="none" stroke="none" visibility="hidden"></rect></g></svg></g></svg>